<svg width="32" height="64" viewBox="0 0 32 64" fill="none" xmlns="http://www.w3.org/2000/svg">
<g clip-path="url(#clip0)">
<path d="M32.1221 34.5144C32.0809 34.4016 27.9785 23.1776 26.1718 17.9207C25.0061 14.5287 23.0515 12.8089 20.3625 12.8089C16.6208 12.8089 15.3751 12.8089 11.6375 12.8089C8.9485 12.8089 6.99388 14.5287 5.82825 17.9207C4.02175 23.1776 -0.0807465 34.4017 -0.122122 34.5144C-0.598622 35.8175 0.0715033 37.2604 1.37475 37.7367C2.67788 38.2132 4.12075 37.5429 4.59713 36.2399C4.63125 36.1464 7.44413 28.4506 9.45013 22.7842C9.6295 23.3732 9.99638 23.879 10.4793 24.2376L10.4853 27.919L6.16363 38.8165C5.928 39.4109 6.273 40.0749 6.89288 40.2239C7.538 40.3789 8.39238 40.5901 9.31913 40.8216V60.985C9.31913 62.6501 10.669 64 12.3341 64C13.9993 64 15.3491 62.6501 15.3491 60.985V42.2469C15.7821 42.2852 16.2176 42.285 16.6508 42.2461V60.985C16.6508 62.6501 18.0006 64 19.6658 64C21.3309 64 22.6808 62.6501 22.6808 60.985V40.8189C23.6066 40.5874 24.4603 40.3766 25.1055 40.2219C25.721 40.0744 26.0719 39.4104 25.8355 38.8142L21.5146 27.9189L21.5206 24.2375C22.0036 23.879 22.3703 23.3732 22.5498 22.7841C24.5556 28.4505 27.3686 36.1462 27.4028 36.2397C27.8793 37.543 29.322 38.2131 30.6251 37.7366C31.9285 37.2604 32.5986 35.8175 32.1221 34.5144Z" fill="black"/>
<path d="M16 10.9745C19.0305 10.9745 21.4872 8.51777 21.4872 5.48725C21.4872 2.45673 19.0305 0 16 0C12.9695 0 10.5127 2.45673 10.5127 5.48725C10.5127 8.51777 12.9695 10.9745 16 10.9745Z" fill="black"/>
</g>
<defs>
<clipPath id="clip0">
<rect width="32" height="64" fill="white"/>
</clipPath>
</defs>
</svg>
