<svg width="32" height="64" viewBox="0 0 32 64" fill="none" xmlns="http://www.w3.org/2000/svg">
<path d="M15.8437 12.5997C19.4993 12.5997 22.472 9.77389 22.472 6.29983C22.472 2.82578 19.4993 0 15.8437 0C12.189 0 9.21552 2.82578 9.21552 6.29983C9.21552 9.77389 12.189 12.5997 15.8437 12.5997Z" fill="black"/>
<path d="M31.649 32.6973C31.6895 32.5738 31.6988 32.4405 31.6716 32.3058L28.3724 15.6697C28.1074 14.113 26.7151 12.9844 25.0621 12.9844H6.62478C4.971 12.9844 3.57936 14.1142 3.31947 15.6489L0.0152788 32.3058C-0.0112577 32.4405 -0.00257182 32.5738 0.0376349 32.6973C0.0120634 32.8498 0 32.9958 0 33.1427C0 34.904 1.50775 36.337 3.36177 36.337C4.98177 36.337 6.36891 35.2363 6.66499 33.702L8.74706 21.3318L8.7202 60.8064C8.7202 62.5686 10.2271 64.0001 12.081 64.0001C13.9349 64.0001 15.4426 62.5671 15.4426 60.8064V41.2672H16.2445V60.8063C16.2445 62.5685 17.7526 64 19.6074 64C21.4603 64 22.9675 62.5669 22.9675 60.8057L22.9404 21.3318L25.0258 33.7204C25.3185 35.2363 26.7068 36.337 28.3268 36.337C30.1798 36.337 31.6876 34.904 31.6876 33.1427C31.6871 32.9958 31.675 32.8481 31.649 32.6973Z" fill="black"/>
</svg>
